<?xml version="1.0" standalone="no"?>
<!DOCTYPE svg PUBLIC "-//W3C//DTD SVG 20010904//EN"
 "http://www.w3.org/TR/2001/REC-SVG-20010904/DTD/svg10.dtd">
<svg version="1.0" xmlns="http://www.w3.org/2000/svg"
 width="100.000000pt" height="100.000000pt" viewBox="0 0 100.000000 100.000000"
 preserveAspectRatio="xMidYMid meet">
<metadata>
Created by potrace 1.11, written by Peter Selinger 2001-2013
</metadata>
<g transform="translate(0.000000,100.000000) scale(0.100000,-0.100000)"
fill="#000000" stroke="none">
<path d="M59 749 c-14 -14 -19 -29 -16 -45 2 -13 44 -94 93 -179 120 -209 142
-216 225 -72 23 40 49 85 59 101 l18 29 56 -96 c31 -52 56 -100 56 -106 0 -6
-19 -43 -43 -83 -24 -43 -41 -82 -39 -95 4 -28 47 -42 67 -22 13 13 242 406
292 500 25 48 23 74 -7 84 -32 10 -47 -5 -109 -115 -35 -59 -68 -116 -75 -125
-10 -14 -22 2 -85 110 -104 177 -126 178 -221 11 -30 -53 -58 -96 -61 -96 -4
0 -30 42 -59 93 -29 50 -59 100 -68 110 -20 23 -57 22 -83 -4z"/>
<path d="M918 758 c-18 -15 -308 -514 -313 -540 -8 -36 50 -64 73 -35 16 19
312 539 312 547 0 10 -35 40 -46 40 -6 0 -17 -6 -26 -12z"/>
</g>
</svg>
